<?xml version="1.0" encoding="UTF-8" standalone="no"?>
<!DOCTYPE svg PUBLIC "-//W3C//DTD SVG 1.1//EN"
 "http://www.w3.org/Graphics/SVG/1.1/DTD/svg11.dtd">
<!-- Generated by graphviz version 2.38.0 (20140413.2041)
 -->
<!-- Title: %3 Pages: 1 -->
<svg width="652pt" height="404pt"
 viewBox="0.00 0.00 652.00 404.00" xmlns="http://www.w3.org/2000/svg" xmlns:xlink="http://www.w3.org/1999/xlink">
<g id="graph0" class="graph" transform="scale(1 1) rotate(0) translate(4 400)">
<title>%3</title>
<polygon fill="white" stroke="none" points="-4,4 -4,-400 648,-400 648,4 -4,4"/>
<!-- 28847 -->
<g id="node1" class="node"><title>28847</title>
<polygon fill="#ff8282" stroke="none" points="194.5,-355 194.5,-390 448.5,-390 448.5,-355 194.5,-355"/>
<text text-anchor="start" x="205.5" y="-369.8" font-family="Verdana" font-weight="bold" font-size="14.00">Process(pid=28847, ppid=0)</text>
<polygon fill="#f7dfdc" stroke="none" points="194.5,-330 194.5,-353 448.5,-353 448.5,-330 194.5,-330"/>
<text text-anchor="start" x="272" y="-337.8" font-family="Verdana" font-size="14.00">Group(28847)</text>
</g>
<!-- 28850 -->
<g id="node2" class="node"><title>28850</title>
<polygon fill="#ff8282" stroke="none" points="175.5,-247 175.5,-282 468.5,-282 468.5,-247 175.5,-247"/>
<text text-anchor="start" x="186.5" y="-261.8" font-family="Verdana" font-weight="bold" font-size="14.00">Process(pid=28850, ppid=28847)</text>
<polygon fill="#f7dfdc" stroke="none" points="175.5,-222 175.5,-245 468.5,-245 468.5,-222 175.5,-222"/>
<text text-anchor="start" x="272.5" y="-229.8" font-family="Verdana" font-size="14.00">Group(28852)</text>
</g>
<!-- 28847&#45;&gt;28850 -->
<g id="edge1" class="edge"><title>28847&#45;&gt;28850</title>
<path fill="none" stroke="black" d="M321.5,-323.998C321.5,-315.852 321.5,-307.063 321.5,-298.536"/>
<polygon fill="black" stroke="black" points="325,-298.328 321.5,-288.328 318,-298.328 325,-298.328"/>
</g>
<!-- 28851 -->
<g id="node3" class="node"><title>28851</title>
<polygon fill="#ff8282" stroke="none" points="10.5,-139 10.5,-174 303.5,-174 303.5,-139 10.5,-139"/>
<text text-anchor="start" x="21.5" y="-153.8" font-family="Verdana" font-weight="bold" font-size="14.00">Process(pid=28851, ppid=28850)</text>
<polygon fill="#f7dfdc" stroke="none" points="10.5,-114 10.5,-137 303.5,-137 303.5,-114 10.5,-114"/>
<text text-anchor="start" x="107.5" y="-121.8" font-family="Verdana" font-size="14.00">Group(28851)</text>
</g>
<!-- 28850&#45;&gt;28851 -->
<g id="edge2" class="edge"><title>28850&#45;&gt;28851</title>
<path fill="none" stroke="black" d="M267.016,-215.998C251.888,-206.28 235.334,-195.645 219.751,-185.634"/>
<polygon fill="black" stroke="black" points="221.514,-182.607 211.209,-180.146 217.731,-188.496 221.514,-182.607"/>
</g>
<!-- 28852 -->
<g id="node4" class="node"><title>28852</title>
<polygon fill="#ff8282" stroke="none" points="341.5,-139 341.5,-174 634.5,-174 634.5,-139 341.5,-139"/>
<text text-anchor="start" x="352.5" y="-153.8" font-family="Verdana" font-weight="bold" font-size="14.00">Process(pid=28852, ppid=28850)</text>
<polygon fill="#f7dfdc" stroke="none" points="341.5,-114 341.5,-137 634.5,-137 634.5,-114 341.5,-114"/>
<text text-anchor="start" x="438.5" y="-121.8" font-family="Verdana" font-size="14.00">Group(28851)</text>
</g>
<!-- 28850&#45;&gt;28852 -->
<g id="edge3" class="edge"><title>28850&#45;&gt;28852</title>
<path fill="none" stroke="black" d="M376.315,-215.998C391.534,-206.28 408.188,-195.645 423.865,-185.634"/>
<polygon fill="black" stroke="black" points="425.915,-188.478 432.459,-180.146 422.148,-182.578 425.915,-188.478"/>
</g>
<!-- 28853 -->
<g id="node5" class="node"><title>28853</title>
<polygon fill="#ff8282" stroke="none" points="341.5,-31 341.5,-66 634.5,-66 634.5,-31 341.5,-31"/>
<text text-anchor="start" x="352.5" y="-45.8" font-family="Verdana" font-weight="bold" font-size="14.00">Process(pid=28853, ppid=28852)</text>
<polygon fill="#f7dfdc" stroke="none" points="341.5,-6 341.5,-29 634.5,-29 634.5,-6 341.5,-6"/>
<text text-anchor="start" x="438.5" y="-13.8" font-family="Verdana" font-size="14.00">Group(28850)</text>
</g>
<!-- 28852&#45;&gt;28853 -->
<g id="edge4" class="edge"><title>28852&#45;&gt;28853</title>
<path fill="none" stroke="black" d="M487.5,-107.998C487.5,-99.8522 487.5,-91.0628 487.5,-82.5365"/>
<polygon fill="black" stroke="black" points="491,-82.3275 487.5,-72.3275 484,-82.3276 491,-82.3275"/>
</g>
</g>
</svg>
